<?xml version="1.0" encoding="utf-8"?>
<!-- Generator: Adobe Illustrator 22.1.0, SVG Export Plug-In . SVG Version: 6.00 Build 0)  -->
<svg version="1.1" id="Layer_1" xmlns="http://www.w3.org/2000/svg" xmlns:xlink="http://www.w3.org/1999/xlink" x="0px" y="0px"
	 viewBox="0 0 150 150" style="enable-background:new 0 0 150 150;" xml:space="preserve">
<style type="text/css">
	.st0{clip-path:url(#SVGID_2_);}
	.st1{fill:url(#SVGID_3_);}
	.st2{clip-path:url(#SVGID_5_);}
	.st3{fill:#FFFFFF;}
</style>
<title>Calendar_icon</title>
<g>
	<defs>
		<circle id="SVGID_1_" cx="75" cy="75" r="75"/>
	</defs>
	<clipPath id="SVGID_2_">
		<use xlink:href="#SVGID_1_"  style="overflow:visible;"/>
	</clipPath>
	<g class="st0">
		
			<linearGradient id="SVGID_3_" gradientUnits="userSpaceOnUse" x1="-602.3589" y1="313.1416" x2="-600.2689" y2="313.1416" gradientTransform="matrix(86.7155 -40.4361 40.4361 86.7155 39555.8789 -51393.9648)">
			<stop  offset="0" style="stop-color:#25408F"/>
			<stop  offset="1" style="stop-color:#3384BF"/>
		</linearGradient>
		<polygon class="st1" points="-57.5,26.8 123.2,-57.4 207.5,123.2 26.8,207.5 		"/>
	</g>
</g>
<g>
	<defs>
		<rect id="SVGID_4_" width="150" height="150"/>
	</defs>
	<clipPath id="SVGID_5_">
		<use xlink:href="#SVGID_4_"  style="overflow:visible;"/>
	</clipPath>
	<g class="st2">
		<path class="st3" d="M91.1,77.1c-0.8-0.8-2.2-0.8-3,0L70.8,94.4l-8.5-8.5c-0.9-0.7-2.3-0.5-3,0.4c-0.6,0.8-0.6,1.8,0,2.6l10,10
			c0.4,0.4,0.9,0.6,1.5,0.6c0.6,0,1.1-0.2,1.5-0.6l18.8-18.7C91.9,79.3,91.9,78,91.1,77.1"/>
		<path class="st3" d="M110.1,106.1c0,0.2-0.2,0.4-0.4,0.4H40.4c-0.2,0-0.4-0.2-0.4-0.4v-35h70.1V106.1z M50.8,43
			c0-0.7,0.6-1.3,1.3-1.3h1.1c0.7,0,1.3,0.6,1.3,1.3v16.5c0,0.7-0.6,1.3-1.3,1.3h0h-1.1c-0.7,0-1.3-0.6-1.3-1.3v0
			C50.8,59.5,50.8,43,50.8,43z M73.1,43c0-0.7,0.6-1.3,1.3-1.3h1.1c0.7,0,1.3,0.6,1.3,1.3v16.5c0,0.7-0.6,1.3-1.3,1.3l0,0h-1.1
			c-0.7,0-1.3-0.6-1.3-1.3v0C73.1,59.5,73.1,43,73.1,43z M95.5,43c0-0.7,0.6-1.3,1.3-1.3h1.1c0.7,0,1.3,0.6,1.3,1.3v16.5
			c0,0.7-0.6,1.3-1.3,1.3l0,0h-1.1c-0.7,0-1.3-0.6-1.3-1.3v0V43z M109.6,50.5h-7.7V43c0-2.2-1.8-4-4-4h-1.1c-2.2,0-4,1.8-4,4v7.5
			H79.5V43c0-2.2-1.8-4-4-4h-1.1c-2.2,0-4,1.8-4,4v7.5H57.2V43c0-2.2-1.8-4-4-4h-1.1c-2.2,0-4,1.8-4,4v7.5h-7.7
			c-2.7,0-4.9,2.2-4.9,4.9v50.7c0,2.7,2.1,4.9,4.8,4.9c0,0,0,0,0.1,0h69.3c2.7,0,4.9-2.2,4.9-4.9V55.4
			C114.5,52.7,112.3,50.5,109.6,50.5"/>
	</g>
</g>
</svg>
