<?xml version="1.0" encoding="utf-8"?>
<!-- Generator: Adobe Illustrator 22.1.0, SVG Export Plug-In . SVG Version: 6.00 Build 0)  -->
<svg version="1.1" id="Layer_1" xmlns="http://www.w3.org/2000/svg" xmlns:xlink="http://www.w3.org/1999/xlink" x="0px" y="0px"
	 viewBox="0 0 150 150" style="enable-background:new 0 0 150 150;" xml:space="preserve">
<style type="text/css">
	.st0{clip-path:url(#SVGID_2_);}
	.st1{fill:url(#SVGID_3_);}
	.st2{clip-path:url(#SVGID_5_);}
	.st3{fill:#FFFFFF;}
</style>
<title>Royce_icon</title>
<g>
	<defs>
		<circle id="SVGID_1_" cx="75" cy="75" r="75"/>
	</defs>
	<clipPath id="SVGID_2_">
		<use xlink:href="#SVGID_1_"  style="overflow:visible;"/>
	</clipPath>
	<g class="st0">
		
			<linearGradient id="SVGID_3_" gradientUnits="userSpaceOnUse" x1="-602.3589" y1="313.1416" x2="-600.2689" y2="313.1416" gradientTransform="matrix(86.7155 -40.4361 40.4361 86.7155 39555.8789 -51393.9648)">
			<stop  offset="0" style="stop-color:#25408F"/>
			<stop  offset="1" style="stop-color:#3384BF"/>
		</linearGradient>
		<polygon class="st1" points="-57.5,26.8 123.2,-57.4 207.5,123.2 26.8,207.5 		"/>
	</g>
</g>
<g>
	<defs>
		<rect id="SVGID_4_" width="150" height="150"/>
	</defs>
	<clipPath id="SVGID_5_">
		<use xlink:href="#SVGID_4_"  style="overflow:visible;"/>
	</clipPath>
	<g class="st2">
		<path class="st3" d="M104.7,42.8c0-0.9,0.7-1.6,1.6-1.5c0.9,0,1.5,0.7,1.5,1.5c0,0,0,0,0,0l0.3,6.2h-3.3L104.7,42.8z M97.8,42.8
			c0-0.9,0.7-1.6,1.6-1.5c0.9,0,1.6,0.7,1.6,1.5c0,0,0,0,0,0l0.3,6.2H98L97.8,42.8z M52.7,48.2h-1.8l0.2-6.1c0-0.5,0.4-0.9,0.9-0.9
			c0,0,0,0,0,0c0.5,0,0.9,0.4,0.9,0.9L52.7,48.2z M44.1,48.2h-1.8l0.2-6.1c0-0.5,0.4-0.9,0.9-0.9c0,0,0,0,0,0c0.5,0,0.9,0.4,0.9,0.9
			L44.1,48.2z M48.4,48.2h-1.8l0.2-6.1c0-0.5,0.4-0.9,0.9-0.9c0,0,0,0,0,0c0.5,0,0.9,0.4,0.9,0.9L48.4,48.2z M102.5,103.3
			c0-0.9,0.8-1.6,1.7-1.6c0.9,0,1.6,0.7,1.6,1.6l0.2,6.6h-3.4L102.5,103.3z M106.5,103.3c0-0.9,0.8-1.6,1.7-1.6
			c0.9,0,1.6,0.7,1.6,1.6l0.2,6.6h-3.4L106.5,103.3z M47.2,109.8h-3.4l0.2-6.6c0-0.9,0.7-1.6,1.6-1.6c0.9,0,1.7,0.7,1.7,1.6
			L47.2,109.8z M43.2,109.8h-3.5l0.2-6.6c0-0.9,0.7-1.6,1.6-1.6c0.9,0,1.7,0.7,1.7,1.6L43.2,109.8z M83.7,112.6l-0.2-14.1
			c0.1-3,2.5-5.3,5.5-5.3c2.9,0,5.3,2.4,5.3,5.3l0,0l0.2,14.1H83.7z M83.2,77.2c0-2.8,2.2-5,5-5.1c2.7,0.1,4.9,2.4,4.8,5.1l0.2,9.3
			h-9.9L83.2,77.2z M69.4,86.6l0.4-14.1c0-2.9,2.4-5.3,5.3-5.3s5.3,2.4,5.3,5.3l0.4,14.1H69.4z M69.4,112.6l0.4-15
			c0-2.9,2.4-5.3,5.3-5.3s5.3,2.4,5.3,5.3l0.4,15H69.4z M67,86.6h-9.9l0.2-9.3c0-2.7,2.1-5,4.8-5.1c2.8,0.1,5,2.3,5,5.1L67,86.6z
			 M67,112.6H56.2l0.2-14.1c0-2.9,2.4-5.3,5.3-5.3l0,0c3,0,5.4,2.3,5.5,5.3L67,112.6z M110.8,36.8l0.6-1.8H92.9l-2,9l1,0.8l1,20.1
			L75,58.5l-17.8,6.5l1-20.1l1-0.8l-2-9H38.5l0.6,1.8L32.4,115h85.2L110.8,36.8z"/>
	</g>
</g>
</svg>
