<?xml version="1.0" encoding="utf-8"?>
<!-- Generator: Adobe Illustrator 22.1.0, SVG Export Plug-In . SVG Version: 6.00 Build 0)  -->
<svg version="1.1" id="Layer_1" xmlns="http://www.w3.org/2000/svg" xmlns:xlink="http://www.w3.org/1999/xlink" x="0px" y="0px"
	 viewBox="0 0 150 150" style="enable-background:new 0 0 150 150;" xml:space="preserve">
<style type="text/css">
	.st0{clip-path:url(#SVGID_2_);}
	.st1{fill:url(#SVGID_3_);}
	.st2{clip-path:url(#SVGID_5_);}
	.st3{fill:#FFFFFF;}
</style>
<title>Eco-friendly_icon</title>
<g>
	<defs>
		<circle id="SVGID_1_" cx="75" cy="75" r="75"/>
	</defs>
	<clipPath id="SVGID_2_">
		<use xlink:href="#SVGID_1_"  style="overflow:visible;"/>
	</clipPath>
	<g class="st0">
		
			<linearGradient id="SVGID_3_" gradientUnits="userSpaceOnUse" x1="-602.3589" y1="313.1416" x2="-600.2689" y2="313.1416" gradientTransform="matrix(86.7155 -40.4361 40.4361 86.7155 39555.8789 -51393.9648)">
			<stop  offset="0" style="stop-color:#25408F"/>
			<stop  offset="1" style="stop-color:#3384BF"/>
		</linearGradient>
		<polygon class="st1" points="-57.5,26.8 123.2,-57.4 207.5,123.2 26.8,207.5 		"/>
	</g>
</g>
<g>
	<defs>
		<rect id="SVGID_4_" width="150" height="150"/>
	</defs>
	<clipPath id="SVGID_5_">
		<use xlink:href="#SVGID_4_"  style="overflow:visible;"/>
	</clipPath>
	<g class="st2">
		<path class="st3" d="M56.9,90.5c0,0-39-17.1,15.6-62.2c0,0,29,22.6,0,51.6c0,0-8.5,6.6-5.7,12.8c0,0,5.2-19.3,38-22.2
			c0,0,9.4,24.7-16.5,33.1c0,0-14.6,1.5-12.4,12.3l1.1,5.3c0,0-1.2,1.4-3.8,0c0,0-4.1-22.6,23.8-43.3c0,0-17,6.1-25,23.2l1.4,1.7
			c0,0-1.1,2.7-3.8,2.4c0,0-19.6-23.4-0.6-64.5C69,40.7,49.2,65.6,56.9,90.5"/>
	</g>
</g>
</svg>
