<svg id="Layer_1" data-name="Layer 1" xmlns="http://www.w3.org/2000/svg" viewBox="0 0 676.52 146.63"><defs><style>.cls-1{fill:#fff;}.cls-2{fill:#3284bf;}</style></defs><title>UCLA Spark_logo_FINAL</title><rect class="cls-1" width="405.59" height="146.63"/><polygon class="cls-2" points="338.1 146.63 349.29 146.63 338.1 115.83 338.1 146.63"/><polygon class="cls-2" points="338.1 0.01 338.1 31.98 349.52 0.53 342.85 38.25 361.98 5.07 348.85 41.05 373.45 11.69 354.28 44.85 383.61 20.21 358.97 49.54 392.13 30.36 362.77 54.97 398.75 41.84 365.56 60.97 403.29 54.29 367.28 67.37 405.59 67.35 367.86 73.97 405.59 80.6 367.28 80.58 403.29 93.65 365.56 86.98 398.75 106.11 362.77 92.98 392.13 117.58 358.97 98.41 383.61 127.74 354.28 103.09 373.45 136.25 348.85 106.89 361.98 142.88 342.85 109.7 349.38 146.63 676.52 146.63 676.52 0.01 338.1 0.01"/><path class="cls-2" d="M322.71,412.31a65.94,65.94,0,0,1-.17-7.9l3.76-42.67h14l-3.82,43.05c-.83,9.31,2.82,16,12.13,16,9.51,0,14.53-6.76,15.36-15l4-44h14L378,405.17c-1.56,16.73-12.65,29.26-30.59,29.26-14,0-23-9-24.71-22.12" transform="translate(-273.74 -322.6)"/><path class="cls-2" d="M387.55,397.86c1.82-20.49,15.64-37.47,39.52-37.47a32.64,32.64,0,0,1,18.34,5.31l-1.59,16.92c-5.5-7.24-12-8.42-18.09-8.42-14.85,0-23,10.32-24.16,23.38-1.13,12.72,5.43,23.06,19.82,23.06,6.29,0,12.95-1.81,19.93-8.78l-1.55,17.38c-6.79,3.68-13.11,5.35-19.47,5.35-23.63,0-34.45-17.55-32.75-36.73" transform="translate(-273.74 -322.6)"/><path class="cls-2" d="M456.57,361.74h13.94l-5.09,57.95h20c1.4,0,6.16-.07,7.45-.15-.07.7-1.27,13.39-1.27,13.39H450.25Z" transform="translate(-273.74 -322.6)"/><path class="cls-2" d="M529.16,388.32a17.15,17.15,0,0,0,1-3h.22a17.38,17.38,0,0,0,.53,3c.76,3.25,6.2,21.27,6.2,21.27h-17.6s9.43-20.83,9.61-21.28m3.58-29.84h-1l-38.15,74.44h14.81l5.36-11.29h26.88L544,432.93H558.8Z" transform="translate(-273.74 -322.6)"/><path class="cls-1" d="M726.84,384.35l-5.62,5.46q-4-3.56-7.34-3.56a5.9,5.9,0,0,0-3.8,1.21,3.7,3.7,0,0,0-1.51,3,3.85,3.85,0,0,0,1.26,2.92,24.69,24.69,0,0,0,5.27,3.31q5.71,3,7.65,5.52a9.62,9.62,0,0,1,2.07,6.41,11.21,11.21,0,0,1-4.19,9.12q-4.27,3.39-11.11,3.39-9.33,0-15.44-7.78l6.52-4.55q4,4.81,8.56,4.82a6.31,6.31,0,0,0,4.11-1.27,4.08,4.08,0,0,0,1.56-3.31,3.61,3.61,0,0,0-1.31-2.89,18.63,18.63,0,0,0-2.2-1.53c-1.06-.65-2.48-1.42-4.28-2.33a20.54,20.54,0,0,1-6.62-4.88,10,10,0,0,1-1.84-6.11,11.28,11.28,0,0,1,4.23-9,16.14,16.14,0,0,1,10.76-3.56Q720.77,378.74,726.84,384.35Z" transform="translate(-273.74 -322.6)"/><path class="cls-1" d="M747.45,378.74l-.55,4.45a23.43,23.43,0,0,1,13.55-4.45,19.23,19.23,0,0,1,19.71,19.84,22,22,0,0,1-6.43,16.07,21.42,21.42,0,0,1-15.89,6.48,18.09,18.09,0,0,1-8-1.52,23.26,23.26,0,0,1-6.88-5.54l-2.25,21.49h-10l6.71-56.82Zm22.72,20.18a12.93,12.93,0,0,0-3.24-9.08,10.67,10.67,0,0,0-8.28-3.59,13.23,13.23,0,0,0-10.08,4.34,15.07,15.07,0,0,0-4.05,10.68,11.77,11.77,0,0,0,12.24,12.35,12.41,12.41,0,0,0,9.54-4.25A15.18,15.18,0,0,0,770.17,398.92Z" transform="translate(-273.74 -322.6)"/><path class="cls-1" d="M834.11,378.74l-5.22,42.39h-9.95l.59-4.58a22.38,22.38,0,0,1-13.23,4.58q-8.43,0-13.73-5.45t-5.31-14.13q0-10,6.07-16.41a21,21,0,0,1,15.8-6.4,56.62,56.62,0,0,1,7.74.45,21.64,21.64,0,0,1,6.62,5.13l.67-5.58Zm-12.11,20a12.57,12.57,0,0,0-3.24-9,10.88,10.88,0,0,0-8.37-3.5,12,12,0,0,0-9.36,4.29,15.58,15.58,0,0,0-3.78,10.61,12.9,12.9,0,0,0,3.15,9,10.41,10.41,0,0,0,8.1,3.49,12.47,12.47,0,0,0,9.5-4.38A15.22,15.22,0,0,0,822,398.72Z" transform="translate(-273.74 -322.6)"/><path class="cls-1" d="M856.46,378.74l-.45,3.64a17.24,17.24,0,0,1,10.17-3.64,13.6,13.6,0,0,1,8.2,2.7L868,388.59a8.55,8.55,0,0,0-5.49-2.34,7.11,7.11,0,0,0-3.33.76,6.69,6.69,0,0,0-2.5,2.37,15.14,15.14,0,0,0-1.76,4.18,41.75,41.75,0,0,0-1.1,6.12l-2.61,21.45h-10l5.23-42.39Z" transform="translate(-273.74 -322.6)"/><path class="cls-1" d="M893.59,358.32l-4.66,36.89,17.82-16.47H920L897.8,398.09l17.86,23h-12L888.21,401l-2.47,20.16h-10l7.86-62.81Z" transform="translate(-273.74 -322.6)"/></svg>