<svg id="Layer_1" data-name="Layer 1" xmlns="http://www.w3.org/2000/svg" viewBox="0 0 1000 1000"><defs><style>.cls-1{fill:none;}.cls-2{fill:#3284bf;}</style></defs><title>Recurring Gifts_icon</title><rect class="cls-1" x="11.02" width="977.95" height="1000"/><path class="cls-2" d="M739.23,873.39A440.49,440.49,0,0,1,158,229.17l-23.57-26.12A475.2,475.2,0,0,0,762.81,899.51Z"/><polygon class="cls-2" points="94.32 299.37 0 245.24 78.34 217.98 156.67 190.72 172.66 272.11 188.64 353.5 94.32 299.37"/><path class="cls-2" d="M249.91,141.13A440.46,440.46,0,0,1,836.16,790.9l23.39,25.92a475.18,475.18,0,0,0-633-701.61Z"/><polygon class="cls-2" points="907.58 718.83 1000 776.15 920.78 800.72 841.56 825.29 828.36 743.4 815.16 661.51 907.58 718.83"/><path class="cls-2" d="M466.72,718c-43.37-2.25-83.76-16.46-109.93-32.91V593.85c34.4,25.43,75.53,46.37,124.14,46.37,40.38,0,74.78-12,74.78-47.86,0-34.4-28.41-46.37-77.77-58.33C388.2,511.59,350.06,475,350.06,402.41c0-69.55,50.1-114.42,116.66-124.89V210.21H537v66.56c33.65,4.49,61.32,15,85.25,29.91v90.49c-35.15-27.67-72.54-44.12-118.9-44.12-38.15,0-60.58,17.2-60.58,44.12,0,33.65,26.17,43.38,80,56.84,90.49,23.18,127.13,62.07,127.13,135.36,0,71-47.86,110.68-112.92,124.14v76.28h-70.3Z"/></svg>