<svg height="256" viewBox="0 0 256 256" width="256" xmlns="http://www.w3.org/2000/svg"><g fill="none" fill-rule="evenodd"><path d="m64 0h128c35.346224 0 64 28.653776 64 64v128c0 35.346224-28.653776 64-64 64h-128c-35.346224 0-64-28.653776-64-64v-128c0-35.346224 28.653776-64 64-64z" fill="#f84646"/><g transform="translate(57 58)"><path d="m21.333624 0h99.332752c1.187989 0 2.2859.64202193 2.88079 1.6845907l18.452834 32.3393137h-142l18.4528339-32.3393137c.5948905-1.04256877 1.6928013-1.6845907 2.8807901-1.6845907z" fill="#f6c3c3"/><path d="m0 34.0239044h142v102.6294816c0 1.848284-1.490052 3.346614-3.328125 3.346614h-135.34375c-1.83807268 0-3.328125-1.49833-3.328125-3.346614z" fill="#fff"/><path d="m13.3125 96.494024h33.28125v8.366534h-33.28125z" fill="#fdd8d8"/><path d="m13.3125 110.438247h33.28125v8.366534h-33.28125z" fill="#fdd8d8"/><path d="m84.8671875 34.0239044h-27.734375l4.5411308-34.0239044h18.7870665z" fill="#ea7777" fill-rule="nonzero"/><path d="m57.1328125 73.0677291 13.9573242-11.1553785 13.7770508 11.1553785v-39.0438247h-27.734375z" fill="#f6c3c3" fill-rule="nonzero"/><path d="m96.9211911 121.185806c1.6779952 1.687317 1.6779952 4.422998 0 6.110315-1.1186634 1.124878-4.3970813 2.384737-9.8352536 3.779576 1.3871337-5.468382 2.6400322-8.765013 3.7586957-9.889891 1.6779951-1.687316 4.3985628-1.687316 6.0765579 0zm35.7681769-35.9673501c1.649254 9.8153006-1.384413 18.5984961-9.101001 26.3495851-.93157.935736-1.868395 1.794844-2.804744 2.582442l-.681935 9.57572c-.042772.600642-.356801 1.14782-.851064 1.486118l-.031792.021308-7.989088 5.242403c-.224923.147593-.477658.247151-.742504.292489-1.055624.180707-2.057785-.522971-2.254902-1.575944l-.006017-.033723-1.319527-7.776634c-1.517769.349062-2.917912.526222-4.15714.570144l-6.6306843-6.66033c.043347-1.233957.2170439-2.626752.5585896-4.136028l-7.6836102-1.315514c-1.0668542-.18263-1.7843187-1.199404-1.6025019-2.271028.0451359-.26603.1442509-.519895.2911872-.745823l5.2190675-8.0248078c.334849-.5148617.8900258-.8429268 1.5007169-.8868036l9.4366682-.6780723c.796892-.9593555 1.667751-1.9193277 2.617983-2.8738086 7.716588-7.7510896 16.460688-10.7983205 26.232298-9.1416928zm-17.793596 10.7936774c-1.949571 1.9604008-1.949571 5.1388387 0 7.0992397 1.94957 1.960401 5.110448 1.960401 7.060019 0 1.94957-1.960401 1.94957-5.1388389 0-7.0992397-1.949571-1.9604008-5.110449-1.9604008-7.060019 0z" fill="#ff6b6b"/></g></g></svg>