<svg id="Layer_1" data-name="Layer 1" xmlns="http://www.w3.org/2000/svg" viewBox="0 0 178.5 178.5"><defs><style>.cls-1{fill:#969696;}.cls-2{fill:none;}</style></defs><title>Footer_Instagram Icon</title><path class="cls-1" d="M178.71,53.2c-.44-9.5-1.94-16-4.15-21.67a43.77,43.77,0,0,0-10.29-15.81,43.75,43.75,0,0,0-15.8-10.28c-5.69-2.22-12.17-3.72-21.67-4.15S114.24.75,90,.75s-27.27.1-36.8.54-16,1.93-21.67,4.15a43.75,43.75,0,0,0-15.8,10.28A43.77,43.77,0,0,0,5.44,31.53C3.23,37.21,1.73,43.7,1.29,53.2S.75,65.75.75,90s.1,27.28.54,36.8,1.94,16,4.15,21.66a43.68,43.68,0,0,0,10.29,15.81,43.81,43.81,0,0,0,15.8,10.3c5.69,2.2,12.17,3.72,21.67,4.14s12.56.54,36.8.54,27.27-.1,36.8-.54,16-1.94,21.67-4.14a45.66,45.66,0,0,0,26.09-26.11c2.21-5.68,3.71-12.16,4.15-21.66s.54-12.56.54-36.8S179.15,62.72,178.71,53.2Zm-16.07,72.87c-.39,8.7-1.85,13.42-3.06,16.57a29.76,29.76,0,0,1-16.94,16.94c-3.15,1.22-7.87,2.66-16.58,3.07-9.4.43-12.23.51-36.06.51s-26.66-.08-36.06-.51c-8.71-.41-13.43-1.85-16.58-3.07a27.51,27.51,0,0,1-10.25-6.69,27.59,27.59,0,0,1-6.69-10.25c-1.21-3.15-2.67-7.87-3.06-16.57-.44-9.41-.53-12.24-.53-36.07s.09-26.65.53-36.06c.39-8.7,1.85-13.43,3.06-16.58A27.55,27.55,0,0,1,27.11,27.1a27.58,27.58,0,0,1,10.25-6.67c3.15-1.22,7.87-2.68,16.58-3.07,9.41-.44,12.23-.53,36.06-.53s26.65.09,36.06.53c8.71.39,13.43,1.85,16.58,3.07a27.58,27.58,0,0,1,10.25,6.67,27.55,27.55,0,0,1,6.69,10.26c1.21,3.15,2.67,7.88,3.06,16.58.44,9.41.53,12.22.53,36.06S163.08,116.66,162.64,126.07Z" transform="translate(-0.75 -0.75)"/><path class="cls-1" d="M90,119.75A29.75,29.75,0,1,1,119.75,90,29.74,29.74,0,0,1,90,119.75m0-75.58A45.84,45.84,0,1,0,135.83,90,45.83,45.83,0,0,0,90,44.17" transform="translate(-0.75 -0.75)"/><path class="cls-1" d="M148.35,42.36a10.71,10.71,0,1,1-10.71-10.71,10.71,10.71,0,0,1,10.71,10.71" transform="translate(-0.75 -0.75)"/><rect class="cls-2" width="178.5" height="178.5"/></svg>