<svg id="Layer_1" data-name="Layer 1" xmlns="http://www.w3.org/2000/svg" viewBox="0 0 977.95 1000"><defs><style>.cls-1{fill:#3284bf;}.cls-2{fill:none;}</style></defs><title>Give by Phone_icon</title><path class="cls-1" d="M426.57,270.29q-10.9-22.35-34.28-46.22l12.21-5.95q28.78-14,44.26-8.16t30.51,36.74q21.17,43.38,15.39,70.31T455,360.48l-10.5,5.12q3.34-51.56-18-95.31" transform="translate(-11.02 0)"/><path class="cls-1" d="M631.16,699.22a201.83,201.83,0,0,0-63.35-75.67l12.89-6.28q60.67-29.6,101.17,53.45,14.55,29.84,10.09,45.63t-30.21,28.38l-13.58,6.63a188.43,188.43,0,0,0-17-52.14" transform="translate(-11.02 0)"/><path class="cls-1" d="M449.93,672.65a822.76,822.76,0,0,1-69.69-117.92,800.52,800.52,0,0,1-48.92-125.29A672,672,0,0,1,307,303.87a290.88,290.88,0,0,1,71.75-73.18,160.38,160.38,0,0,1,32.78,44.85q20.65,42.38,16.74,98l-6.1,3q-41.7,20.33,22,150.83Q505.77,653.8,547.47,633.47l6.09-3q43.35,34.66,63.38,75.7a273.9,273.9,0,0,1,18.72,51.3q-53,15.28-101.85,11.45a648.25,648.25,0,0,1-83.88-96.28" transform="translate(-11.02 0)"/><path class="cls-1" d="M58.83,1000l65.86-198.17A488.6,488.6,0,0,1,11,489C11,219.36,230.38,0,500,0S989,219.36,989,489,769.62,978,500,978a483.43,483.43,0,0,1-218.63-51.9ZM500,27.94c-254.22,0-461,206.82-461,461A460.74,460.74,0,0,0,151,789.66l5.17,6L102.92,955.9l180.75-60.07,5.24,2.7A455.84,455.84,0,0,0,500,950c254.22,0,461-206.82,461-461S754.22,27.94,500,27.94Z" transform="translate(-11.02 0)"/><rect class="cls-2" width="977.95" height="1000"/></svg>