<svg id="Layer_1" data-name="Layer 1" xmlns="http://www.w3.org/2000/svg" viewBox="0 0 111.03 22.58"><defs><style>.cls-1{fill:#3284bf;}</style></defs><title>Giving_logo_blue_FINAL</title><path class="cls-1" d="M164.36,107.53H164c-.68-1.84-1.79-3.51-4-3.51-1.74,0-4.53,1.64-4.53,5.93s2.39,5.51,4.09,5.51a2.57,2.57,0,0,0,2.86-2.73v-1.26c0-.8-.25-1-1.46-1v-.36h4.43v.36c-1,.09-1.25.31-1.25.94v3a9.57,9.57,0,0,1-4.7,1.45,5.61,5.61,0,0,1-5.88-5.87,5.92,5.92,0,0,1,6-6.29,6.56,6.56,0,0,1,3.8,1.09L164,104h.26Z" transform="translate(-88.35 -96.66)"/><path class="cls-1" d="M166.34,115.58v-.33c.77,0,1,0,1-.93v-4.09c0-.36,0-.84-.31-1a1.47,1.47,0,0,0-.61-.17v-.18c.73-.3,1.5-.61,2.27-.9v6.38c0,.88.22.88.93.93v.33Zm2.4-11a.86.86,0,0,1-.81.89.91.91,0,0,1-.89-.89.85.85,0,1,1,1.7,0Z" transform="translate(-88.35 -96.66)"/><path class="cls-1" d="M170.09,108.21h3.6v.33c-.31,0-1.11,0-1.11.46a4.09,4.09,0,0,0,.22.77l1.64,4.21,1.92-4.3a1.51,1.51,0,0,0,.19-.68c0-.5-.77-.46-1.09-.46v-.33h2.64v.33c-.64,0-.95.39-1.21,1l-2.83,6.25h-.29l-2.48-6.23c-.26-.65-.35-1-1.2-1Z" transform="translate(-88.35 -96.66)"/><path class="cls-1" d="M178.67,115.58v-.33c.76,0,1,0,1-.93v-4.09c0-.36,0-.84-.31-1a1.51,1.51,0,0,0-.62-.17v-.18c.74-.3,1.5-.61,2.27-.9v6.38c0,.88.22.88.94.93v.33Zm2.4-11a.87.87,0,0,1-.82.89.9.9,0,0,1-.88-.89.89.89,0,0,1,.88-.87A.9.9,0,0,1,181.07,104.53Z" transform="translate(-88.35 -96.66)"/><path class="cls-1" d="M183,115.58v-.33c.76,0,1,0,1-.93v-4.23a.94.94,0,0,0-.83-1.07v-.19c.77-.22,1.45-.53,2.18-.8v1.29A3.07,3.07,0,0,1,187.6,108a2.45,2.45,0,0,1,2.49,2.25v4c0,.88.46.88,1,.93v.33h-3.38v-.33c.77,0,1,0,1-.93v-3.75a1.61,1.61,0,0,0-1.7-1.79c-.74,0-1.76.71-1.76,1.5v4c0,.88.22.88.95.93v.33Z" transform="translate(-88.35 -96.66)"/><path class="cls-1" d="M197.26,108.71c.19-.1.43-.26.67-.38a1.71,1.71,0,0,1,.71-.22.64.64,0,0,1,.67.67.5.5,0,0,1-.53.52c-.48,0-.77-.71-1.3-.32a2.09,2.09,0,0,1,.55,1.47,2.6,2.6,0,0,1-2.88,2.57,5.46,5.46,0,0,1-1.19-.19c-.4.26-.82.51-.82,1,0,1.14,1.62,1,2.38,1,1.42.08,3.86.12,3.86,2.11s-2.58,2.25-4.13,2.25c-1.05,0-3.53-.1-3.53-1.6a2.15,2.15,0,0,1,1.52-1.86,1.59,1.59,0,0,1-.87-1.41c0-.92.51-1.32,1.26-1.71a2.25,2.25,0,0,1-1.22-2.18,2.57,2.57,0,0,1,2.71-2.45A3.8,3.8,0,0,1,197.26,108.71ZM195.63,119c1,0,2.83-.17,2.83-1.55,0-.9-.75-1.21-1.54-1.23a15.79,15.79,0,0,1-3.36-.23,1.8,1.8,0,0,0-.9,1.41C192.66,118.93,194.47,119,195.63,119Zm-.43-6.3c1.14,0,1.5-1.15,1.5-2.1s-.32-2.17-1.48-2.17-1.47,1.25-1.47,2.2S194.08,112.65,195.2,112.65Z" transform="translate(-88.35 -96.66)"/><path class="cls-1" d="M88.4,110.39a17.57,17.57,0,0,1,0-2l1-10.89h3.56l-1,11c-.21,2.38.72,4.08,3.09,4.08s3.71-1.73,3.92-3.84l1-11.22h3.56l-1,11.08c-.4,4.27-3.23,7.47-7.8,7.47a6.08,6.08,0,0,1-6.31-5.65" transform="translate(-88.35 -96.66)"/><path class="cls-1" d="M104.94,106.71c.47-5.23,4-9.56,10.08-9.56a8.32,8.32,0,0,1,4.68,1.35l-.4,4.32a5.28,5.28,0,0,0-4.62-2.15c-3.79,0-5.87,2.63-6.16,6s1.38,5.88,5.06,5.88a6.85,6.85,0,0,0,5.08-2.24l-.4,4.43a10.21,10.21,0,0,1-5,1.37c-6,0-8.78-4.48-8.35-9.37" transform="translate(-88.35 -96.66)"/><path class="cls-1" d="M122.55,97.49h3.55l-1.29,14.79h5.09c.36,0,1.57,0,1.9,0,0,.18-.32,3.41-.32,3.41H120.94Z" transform="translate(-88.35 -96.66)"/><path class="cls-1" d="M141.07,104.27a4.58,4.58,0,0,0,.26-.76h.06a4.76,4.76,0,0,0,.13.77c.2.82,1.58,5.42,1.58,5.42h-4.49l2.46-5.43m.91-7.61h-.25l-9.73,19h3.78l1.36-2.88H144l.86,2.88h3.76Z" transform="translate(-88.35 -96.66)"/></svg>