<svg viewBox="0 0 143.96 80.91" xmlns="http://www.w3.org/2000/svg"><path d="m143.54 43.36c-1.57-4.06-6.75-8.07-11.22-6.99-2.77.5-4.98 3.88-6.63 6.02-2.37 2.89-3.98 5.34-7.1 7.44-.16.11-.37.21-.61.32-.72.35-1.54.54-2.36.46-.27-.04-.57-.11-.86-.21-.26-.12-.56-.25-.78-.41-.5-.33-.85-.71-1.12-1.03-1.29-1.68-1.86-3.44-2.31-4.83-1.27-4.13-1.76-8.01-2.47-12.2-.13-.84-.33-1.56-.5-2.4-.36-1.39-.82-3.01-1.46-4.51-2.73-7.21-9.41-12.21-17.16-11.68l-.99.1c-.58.12-1.09-.24-1.22-.77-5.24-14.49-28.73-18.78-32.65-.92-.27 1.01-.39 1.93-.49 2.77l-.06 1.37.06 1.33c1.51 12.73 13.05 24.63 22.21 33.09.29.24-.09.72-.4.48-10.74-8.41-22.83-20.23-24.41-33.87-2.26-.08-4.55-.17-7.34.11-2.45.17-4.78.6-7.17 1.1-4.3 1-8.48 2.45-12.55 4.5-.58.31-1.23.63-1.78.95-.9.34-2.07 1.8-3.1.94-1.59-1.39-3.41-2.24-5.12-2.39-1.07-.12-2.05.1-2.69.28l-.73.33c-.07.03-.15.06-.22.1l-.81.56-.55.54c-1.5 1.51-2.18 3.69-2.46 5.16-.23.83-.34 2.38-.47 3.22-.47 3.49-3.66 5.96-6.03 8.13l1.25.72c4.74 1.94 8.75-5.85 10.6-9.59l.04-.1c.13-.36.27-.74.4-1.08l.58-1.31c.17-.21.53-.53.77-.5h.36s.05-.03.05-.03c.41.24.88.86.92 1.07l-.08.26c0 .05-.02.11-.02.11l-.16.47c-.23.59-.48 1.19-.79 1.87-.04.11-.1.27-.13.37-.31.98-.68 1.97-.96 3l-.77 3.07c-2.44 11.98-2.37 24.89-1.19 37.88 8.22 5.63 18.97 4.64 27.53.06-1.64-8.89-.81-22.7 11.02-22.26 11.23.2 12.25 13.9 11.02 22.68l2.9 1.25c1.22.42 2.41.84 3.7 1.25l2.78.69c.46.1 2.39.37 2.9.46.64.06 1.25.08 1.91.13 2.6.12 5.32-.16 7.6-.86.57-.2 1.18-.35 1.74-.61l.91-.39.75-.39c.28-.14.56-.3.87-.5.24-.16.57-.35.76-.5.28-.21.51-.36.81-.63l.32-.25c.96-6.07 1.11-14.54.85-21.96-.09-2.75-.21-5.18-.37-7.45-.06-.6.43-1.15 1.02-1.18.34-.03.71.13.93.42 1.99 2.52 4.23 4.87 6.67 6.98 5.85 4.97 14.26 10.02 20.7 4.92.26-.2.55-.5.85-.77.29-.28.49-.55.79-.87 2.49-3.5 5.45-7.43 8.35-9.35 3.21-2.21 5.98-2.95 9.95-2.94 1.93.02 3.92.14 5.84.11l-.42-1.31zm-47.96-15.04c-1.55 0-2.81-1.26-2.81-2.81s1.26-2.81 2.81-2.81 2.81 1.26 2.81 2.81-1.26 2.81-2.81 2.81z" fill="#a7aaad"/></svg>