<svg id="Layer_1" data-name="Layer 1" xmlns="http://www.w3.org/2000/svg" viewBox="0 0 178.02 144.66"><defs><style>.cls-1{fill:#969696;}.cls-2{fill:none;}</style></defs><title>Footer_Twitter Icon</title><path class="cls-1" d="M57,162.33c67.18,0,103.91-55.65,103.91-103.91,0-1.59,0-3.16-.11-4.72A74.32,74.32,0,0,0,179,34.79a73.17,73.17,0,0,1-21,5.75,36.61,36.61,0,0,0,16.06-20.21A73.09,73.09,0,0,1,150.9,29.2,36.55,36.55,0,0,0,88.67,62.51,103.71,103.71,0,0,1,13.38,24.36,36.55,36.55,0,0,0,24.7,73.11,36.24,36.24,0,0,1,8.15,68.54V69a36.52,36.52,0,0,0,29.3,35.79,36.1,36.1,0,0,1-9.63,1.29,37,37,0,0,1-6.87-.65,36.62,36.62,0,0,0,34.12,25.37A73.39,73.39,0,0,1,9.71,146.43a73.56,73.56,0,0,1-8.71-.5,103.46,103.46,0,0,0,56,16.4" transform="translate(-1 -17.67)"/><rect class="cls-2" width="178" height="144.66"/></svg>