<?xml version="1.0" encoding="utf-8"?>
<!-- Generator: Adobe Illustrator 22.1.0, SVG Export Plug-In . SVG Version: 6.00 Build 0)  -->
<svg version="1.1" id="Layer_1" xmlns="http://www.w3.org/2000/svg" xmlns:xlink="http://www.w3.org/1999/xlink" x="0px" y="0px"
	 viewBox="0 0 156.7 30.8" style="enable-background:new 0 0 156.7 30.8;" xml:space="preserve">
<style type="text/css">
	.st0{fill:#2774AE;}
</style>
<title>Uxd_Blk_Giving</title>
<g id="Unboxed_Black">
	<path d="M104.6,24.2L104.6,24.2c-1,1.8-2.9,2.8-4.9,2.7c-2.3,0.1-4.5-0.8-6.1-2.5c-1.5-1.8-2.3-4.1-2.3-6.5
		c-0.1-2.7,0.9-5.2,2.8-7.1c1.5-1.4,3.5-2.1,5.6-2c4.4,0,6.9,2.4,7.4,5.8h-3.4c-0.4-1.8-2.1-3-3.9-2.9c-3.3,0-4.9,2.7-4.9,6.2
		s1.9,6.1,4.8,6.1c2.3,0.1,4.3-1.6,4.5-3.9V20h-4.2v-2.7h7.3v9.2h-2.6L104.6,24.2z"/>
	<path d="M109.7,9.2h3.3v3h-3.3L109.7,9.2z M109.7,14.1h3.3v12.4h-3.3L109.7,14.1z"/>
	<path d="M113.9,14.1h3.3l2,6.5c0.4,1.2,0.6,2,0.6,2h0.1c0,0,0.2-0.8,0.5-2l2-6.5h3.3l-4.3,12.4h-3.1L113.9,14.1z"/>
	<path d="M126.7,9.2h3.3v3h-3.3V9.2z M126.7,14.1h3.3v12.4h-3.3V14.1z"/>
	<path d="M135.3,15.8L135.3,15.8c0.8-1.3,2.2-2.1,3.8-2c2.6,0,4.3,1.9,4.3,4.7v8.1H140v-7.7c0.1-1.1-0.7-2.2-1.8-2.3
		c-0.1,0-0.2,0-0.3,0c-1.4,0-2.6,1.2-2.5,2.7c0,0.1,0,0.1,0,0.2v7.1H132V14.1h3.2L135.3,15.8z"/>
	<path d="M144.9,26.9h3.3c0.3,0.8,1,1.4,2.5,1.4c1.9,0,2.8-0.9,2.8-2.6v-1.4h-0.1c-0.8,1-2,1.5-3.2,1.5c-3.1-0.1-5.5-2.6-5.5-5.7
		c0-0.1,0-0.2,0-0.3c0-3.7,2.2-6.1,5.4-6.1c1.4-0.1,2.6,0.6,3.4,1.7l0,0v-1.3h3.2v11.5c0.1,1.4-0.5,2.8-1.5,3.8
		c-1.3,1-2.9,1.5-4.5,1.4C147.3,30.8,145.3,29.3,144.9,26.9z M153.6,19.8c0-1.8-1-3.4-3-3.4c-1.7,0-2.8,1.3-2.8,3.4s1.1,3.3,2.8,3.3
		C152.8,23.1,153.6,21.6,153.6,19.8z"/>
	<path class="st0" d="M0.1,19.2C0,18.2,0,17.3,0,16.4L1.4,1.2h5L5,16.5c-0.3,3.3,1,5.7,4.3,5.7s5.2-2.4,5.5-5.3l1.4-15.7h5
		l-1.4,15.5c-0.6,6-4.5,10.4-10.9,10.4C3.9,27.1,0.7,23.8,0.1,19.2"/>
	<path class="st0" d="M22.3,14C23,6.7,27.9,0.6,36.4,0.6c2.3,0,4.6,0.6,6.5,1.9l-0.6,6c-1.5-2-3.9-3.2-6.5-3c-5.3,0-8.2,3.7-8.6,8.3
		s1.9,8.2,7.1,8.2c2.7,0,5.3-1.1,7.1-3.1l-0.6,6.2c-2.1,1.2-4.5,1.9-6.9,1.9C25.6,27.1,21.7,20.9,22.3,14"/>
	<path class="st0" d="M46.9,1.2h5L50,21.8h7.1c0.5,0,2.2,0,2.7,0c0,0.2-0.4,4.8-0.4,4.8H44.7L46.9,1.2z"/>
	<path class="st0" d="M72.8,10.6c0.2-0.3,0.3-0.7,0.4-1.1h0.1c0,0.4,0.1,0.7,0.2,1.1c0.3,1.1,2.2,7.6,2.2,7.6h-6.3
		C69.3,18.2,72.7,10.8,72.8,10.6 M74,0h-0.3L60.1,26.5h5.3l1.9-4h9.6l1.2,4h5.3L74,0z"/>
</g>
</svg>
