<?xml version="1.0" encoding="utf-8"?>
<!-- Generator: Adobe Illustrator 22.1.0, SVG Export Plug-In . SVG Version: 6.00 Build 0)  -->
<svg version="1.1" id="Layer_1" xmlns="http://www.w3.org/2000/svg" xmlns:xlink="http://www.w3.org/1999/xlink" x="0px" y="0px"
	 viewBox="0 0 178.1 118.2" style="enable-background:new 0 0 178.1 118.2;" xml:space="preserve">
<style type="text/css">
	.st0{fill:#969696;}
	.st1{fill:none;}
</style>
<path class="st0" d="M174.3,18.5c-2.1-7.3-8.1-13-15.7-14.9C144.7,0,89,0,89,0S33.4,0,19.5,3.5C11.8,5.5,5.8,11.2,3.7,18.5
	C0,31.6,0,59.1,0,59.1s0,27.5,3.7,40.6c2.1,7.3,8.1,13,15.7,14.9c13.9,3.5,69.6,3.5,69.6,3.5s55.7,0,69.6-3.5
	c7.7-1.9,13.7-7.7,15.7-14.9c3.7-13.2,3.7-40.6,3.7-40.6S178.1,31.6,174.3,18.5z M70.8,84V34.2l46.5,24.9L70.8,84z"/>
<rect class="st1" width="178.1" height="118.2"/>
</svg>
